<?xml version="1.0" encoding="UTF-8"?>
<svg width="389.93" height="783.5" version="1.1" viewBox="0 0 389.93 783.5" xmlns="http://www.w3.org/2000/svg" xmlns:cc="http://creativecommons.org/ns#" xmlns:dc="http://purl.org/dc/elements/1.1/" xmlns:rdf="http://www.w3.org/1999/02/22-rdf-syntax-ns#">
 <metadata>
  <rdf:RDF>
   <cc:Work rdf:about="">
    <dc:format>image/svg+xml</dc:format>
    <dc:type rdf:resource="http://purl.org/dc/dcmitype/StillImage"/>
    <dc:title/>
   </cc:Work>
  </rdf:RDF>
 </metadata>
 <path id="body" transform="translate(0 985)" d="M58.172-201.5A54.536,54.536,0,0,1,3.635-256.034V-695.958A3.636,3.636,0,0,1,0-699.595v-49.083a3.636,3.636,0,0,1,3.635-3.635v-14.543A3.636,3.636,0,0,1,0-770.491v-49.083a3.636,3.636,0,0,1,3.635-3.636v-27.268A3.636,3.636,0,0,1,0-854.113v-21.815a3.636,3.636,0,0,1,3.635-3.636v-50.9A54.536,54.536,0,0,1,58.172-985h273.59A54.535,54.535,0,0,1,386.3-930.464v126.343a3.636,3.636,0,0,1,3.636,3.635v81.8a3.636,3.636,0,0,1-3.636,3.636v459.012A54.535,54.535,0,0,1,331.762-201.5Z" fill="#2d2d41"/>
 <path id="camera" d="m224.93 33.35a6 6 0 0 1 6-6 6 6 0 0 1 6 6 6 6 0 0 1-6 6 6 6 0 0 1-6-6zm-64 3a3 3 0 0 1-3-3 3 3 0 0 1 3-3h47a3 3 0 0 1 3 3 3 3 0 0 1-3 3z" fill="#424256"/>
 <path id="screen" d="m326.91 759.9h-264.27a35.572 35.572 0 0 1-25.333-10.581 36.173 36.173 0 0 1-10.5-25.55v-661.24a36.174 36.174 0 0 1 10.5-25.55 35.572 35.572 0 0 1 25.333-10.584h34.041a4.433 4.433 0 0 1 3.139 1.3 4.508 4.508 0 0 1 1.34 3.138v2.791a19.9 19.9 0 0 0 5.772 14.053 19.637 19.637 0 0 0 6.264 4.259 19.441 19.441 0 0 0 7.672 1.559h149.6a17.785 17.785 0 0 0 12.669-5.292 18.087 18.087 0 0 0 5.248-12.775v-4.517a4.5 4.5 0 0 1 4.476-4.516h34.046a35.572 35.572 0 0 1 25.337 10.583 36.174 36.174 0 0 1 10.5 25.55v661.24a36.173 36.173 0 0 1-10.5 25.55 35.572 35.572 0 0 1-25.337 10.581z" fill="#424256"/>
</svg>
