<svg width="93" height="165" viewBox="0 0 93 165" fill="none" xmlns="http://www.w3.org/2000/svg">
<rect x="3" y="3" width="87" height="159" fill="#231F20"/>
<rect x="9" y="20" width="74" height="122" fill="#F2F8F0"/>
<path d="M6.03437 165H86.9656C90.2934 165 93 162.292 93 158.963V6.03713C93 2.70783 90.2934 0 86.9656 0H6.03437C2.7066 0 0 2.70783 0 6.03713V158.963C0.0443702 162.292 2.7066 165 6.03437 165ZM4.48141 6.03713C4.48141 5.14932 5.19132 4.43906 6.07873 4.43906H87.01C87.8974 4.43906 88.6073 5.14932 88.6073 6.03713V158.963C88.6073 159.851 87.8974 160.561 87.01 160.561H6.03437C5.14696 160.561 4.43702 159.851 4.43702 158.963V6.03713H4.48141Z" fill="white"/>
<path d="M9.55961 144H83.4404C84.287 144 85 143.285 85 142.437V19.5633C85 18.7146 84.287 18 83.4404 18H9.55961C8.71296 18 8 18.7146 8 19.5633V142.392C8 143.285 8.71296 144 9.55961 144ZM11.1192 21.1266H81.8808V140.829H11.1192V21.1266Z" fill="#F2F8F0"/>
<path d="M35.9412 14H55.0588C56.6631 14 58 12.6096 58 10.8356V10.1644C58 8.43836 56.7076 7 55.0588 7H35.9412C34.3369 7 33 8.39041 33 10.1644V10.8356C33.0446 12.6096 34.3369 14 35.9412 14ZM36.164 10.4041H54.8806V10.6438H36.164V10.4041Z" fill="#F2F8F0"/>
<path d="M67 14C69.2279 14 71 12.2279 71 10C71 7.77216 69.2279 6 67 6C64.7722 6 63 7.77216 63 10C63 12.1772 64.8228 14 67 14ZM67 9.5443C67.2532 9.5443 67.4557 9.74684 67.4557 10C67.4557 10.2532 67.2532 10.4557 67 10.4557C66.7469 10.4557 66.5443 10.2532 66.5443 10C66.5443 9.74684 66.7469 9.5443 67 9.5443Z" fill="#F2F8F0"/>
<path d="M51.8757 146H41.1243C37.7673 146 35 148.711 35 152C35 155.289 37.7673 158 41.1243 158H51.8757C55.2327 158 58 155.289 58 152C58 148.711 55.2781 146 51.8757 146ZM51.8757 154.889H41.1243C39.4911 154.889 38.1755 153.6 38.1755 152C38.1755 150.4 39.4911 149.111 41.1243 149.111H51.8757C53.5089 149.111 54.8245 150.4 54.8245 152C54.8245 153.6 53.5089 154.889 51.8757 154.889Z" fill="#F2F8F0"/>
<path d="M6.03437 165H86.9656C90.2934 165 93 162.292 93 158.963V6.03713C93 2.70783 90.2934 0 86.9656 0H6.03437C2.7066 0 0 2.70783 0 6.03713V158.963C0.0443702 162.292 2.7066 165 6.03437 165ZM4.48141 6.03713C4.48141 5.14932 5.19132 4.43906 6.07873 4.43906H87.01C87.8974 4.43906 88.6073 5.14932 88.6073 6.03713V158.963C88.6073 159.851 87.8974 160.561 87.01 160.561H6.03437C5.14696 160.561 4.43702 159.851 4.43702 158.963V6.03713H4.48141Z" fill="#231F20"/>
</svg>
