<?xml version="1.0" encoding="UTF-8" standalone="no"?>
<svg
   xmlns:dc="http://purl.org/dc/elements/1.1/"
   xmlns:cc="http://creativecommons.org/ns#"
   xmlns:rdf="http://www.w3.org/1999/02/22-rdf-syntax-ns#"
   xmlns:svg="http://www.w3.org/2000/svg"
   xmlns="http://www.w3.org/2000/svg"
   xmlns:sodipodi="http://sodipodi.sourceforge.net/DTD/sodipodi-0.dtd"
   xmlns:inkscape="http://www.inkscape.org/namespaces/inkscape"
   width="24"
   height="24"
   viewBox="0 0 24 24"
   fill="none"
   stroke="currentColor"
   stroke-width="2"
   stroke-linecap="round"
   stroke-linejoin="round"
   class="feather feather-figma"
   version="1.1"
   id="svg20"
   sodipodi:docname="figma.svg"
   inkscape:version="1.0.1 (c497b03c, 2020-09-10)">
  <metadata
     id="metadata26">
    <rdf:RDF>
      <cc:Work
         rdf:about="">
        <dc:format>image/svg+xml</dc:format>
        <dc:type
           rdf:resource="http://purl.org/dc/dcmitype/StillImage" />
      </cc:Work>
    </rdf:RDF>
  </metadata>
  <defs
     id="defs24" />
  <sodipodi:namedview
     pagecolor="#ffffff"
     bordercolor="#666666"
     borderopacity="1"
     objecttolerance="10"
     gridtolerance="10"
     guidetolerance="10"
     inkscape:pageopacity="0"
     inkscape:pageshadow="2"
     inkscape:window-width="1293"
     inkscape:window-height="762"
     id="namedview22"
     showgrid="false"
     inkscape:zoom="14.520998"
     inkscape:cx="14.36935"
     inkscape:cy="11.024449"
     inkscape:window-x="0"
     inkscape:window-y="23"
     inkscape:window-maximized="0"
     inkscape:current-layer="svg20" />
  <path
     d="M 6.8408497,6.8972455 A 2.7120669,2.7120669 0 0 1 9.5529166,4.1851786 H 12.264983 V 9.6093124 H 9.5529166 A 2.7120669,2.7120669 0 0 1 6.8408497,6.8972455 Z"
     id="path10"
     style="stroke-width:1.54976" />
  <path
     d="m 12.264983,4.1851786 h 2.712067 a 2.7120669,2.7120669 0 1 1 0,5.4241338 h -2.712067 z"
     id="path12"
     style="stroke-width:1.54976" />
  <path
     d="m 12.264983,12.321379 a 2.712067,2.712067 0 1 1 5.424134,0 2.712067,2.712067 0 1 1 -5.424134,0 z"
     id="path14"
     style="stroke-width:1.54976" />
  <path
     d="m 6.8408497,17.745513 a 2.7120669,2.7120669 0 0 1 2.7120669,-2.712067 h 2.7120664 v 2.712067 a 2.7120671,2.7120671 0 1 1 -5.4241333,0 z"
     id="path16"
     style="stroke-width:1.54976" />
  <path
     d="M 6.8408497,12.321379 A 2.7120669,2.7120669 0 0 1 9.5529166,9.6093124 H 12.264983 V 15.033446 H 9.5529166 A 2.7120669,2.7120669 0 0 1 6.8408497,12.321379 Z"
     id="path18"
     style="stroke-width:1.54976" />
</svg>
