<svg width="48" height="48" viewBox="0 0 48 48" fill="none" xmlns="http://www.w3.org/2000/svg">
<path d="M35.0055 42.0691H5.93109V5.93115H42.0663V42.0691H35.0055Z" fill="#F2F8F0"/>
<path d="M35.3685 43H5V5H42.9972V43H35.3685ZM6.86202 41.138H34.6423H41.3093L41.1352 6.86202H6.86202V41.138Z" fill="#231F20"/>
<path d="M38.2294 21.3353H9.76813V24.7125H38.2294V21.3353Z" fill="#76CC6D"/>
<path d="M39.1975 25.6714H8.79974V20.3765H39.1975V25.6714ZM10.7362 23.7536H37.261V22.2942H10.7362V23.7536Z" fill="#231F20"/>
<path d="M38.2294 27.9768H9.76807V31.3215H38.2294V27.9768Z" fill="#76CC6D"/>
<path d="M39.1975 32.2704H8.79974V27.0259H39.1975V32.2704ZM10.7362 30.3706H37.261V28.9257H10.7362V30.3706Z" fill="#231F20"/>
<path d="M38.2294 34.6255H9.76807V37.974H38.2294V34.6255Z" fill="#76CC6D"/>
<path d="M39.1975 38.9238H8.79974V33.6754H39.1975V38.9238ZM10.7362 37.0239H37.261V35.5753H10.7362V37.0239Z" fill="#231F20"/>
<path d="M17.489 9.7887H9.61108V17.6663H17.489V9.7887Z" fill="#76CC6D"/>
<path d="M18.3 18.4775H8.79999V8.97754H18.3V18.4775V18.4775ZM10.4221 16.8551H16.6779V10.5999H10.4221V16.8551Z" fill="#231F20"/>
<path d="M37.2981 11.827H30.6481V13.727H37.2981V11.827Z" fill="#231F20"/>
<path d="M37.2977 16.5767H20.1989V18.4765H37.2977V16.5767Z" fill="#231F20"/>
</svg>
