<svg width="78" height="155" viewBox="0 0 78 155" fill="none" xmlns="http://www.w3.org/2000/svg">
<path d="M77.4629 145.965V9.56674C77.4629 0.837767 66.9036 -4.57764e-05 66.9036 -4.57764e-05H10.5568C10.5568 -4.57764e-05 0.000408476 0.837767 0.000408476 9.56674V145.965C0.000408476 145.965 -0.223792 154.683 9.83294 154.683H67.6284C77.6837 154.683 77.4629 145.965 77.4629 145.965Z" fill="#231F20"/>
<path d="M4.37781 19.7991V135.894H73.0932V19.7991H4.37781Z" fill="#F2F8F0"/>
<path d="M43.5825 145.879C43.5825 148.555 41.4128 150.726 38.7349 150.726C36.0598 150.726 33.8896 148.555 33.8896 145.879C33.8896 143.199 36.0598 141.028 38.7349 141.028C41.4128 141.028 43.5825 143.199 43.5825 145.879Z" fill="#F2F8F0"/>
<path d="M50.6313 11.6588H26.8315V10.4962H50.6313V11.6588Z" fill="#BCBEC0"/>
</svg>
