<svg width="141" height="173" viewBox="0 0 141 173" fill="none" xmlns="http://www.w3.org/2000/svg">
<rect x="51" y="3" width="87" height="159" fill="#231F20"/>
<rect x="57" y="20" width="74" height="122" fill="#F2F8F0"/>
<path d="M54.0344 165H134.966C138.293 165 141 162.292 141 158.963V6.03713C141 2.70783 138.293 0 134.966 0H54.0344C50.7066 0 48 2.70783 48 6.03713V158.963C48.0444 162.292 50.7066 165 54.0344 165ZM52.4814 6.03713C52.4814 5.14932 53.1913 4.43906 54.0787 4.43906H135.01C135.897 4.43906 136.607 5.14932 136.607 6.03713V158.963C136.607 159.851 135.897 160.561 135.01 160.561H54.0344C53.147 160.561 52.437 159.851 52.437 158.963V6.03713H52.4814Z" fill="white"/>
<path d="M57.5596 144H131.44C132.287 144 133 143.285 133 142.437V19.5633C133 18.7146 132.287 18 131.44 18H57.5596C56.713 18 56 18.7146 56 19.5633V142.392C56 143.285 56.713 144 57.5596 144ZM59.1192 21.1266H129.881V140.829H59.1192V21.1266Z" fill="#F2F8F0"/>
<path d="M83.9412 14H103.059C104.663 14 106 12.6096 106 10.8356V10.1644C106 8.43836 104.708 7 103.059 7H83.9412C82.3369 7 81 8.39041 81 10.1644V10.8356C81.0446 12.6096 82.3369 14 83.9412 14ZM84.164 10.4041H102.881V10.6438H84.164V10.4041Z" fill="#F2F8F0"/>
<path d="M115 14C117.228 14 119 12.2279 119 10C119 7.77216 117.228 6 115 6C112.772 6 111 7.77216 111 10C111 12.1772 112.823 14 115 14ZM115 9.5443C115.253 9.5443 115.456 9.74684 115.456 10C115.456 10.2532 115.253 10.4557 115 10.4557C114.747 10.4557 114.544 10.2532 114.544 10C114.544 9.74684 114.747 9.5443 115 9.5443Z" fill="#F2F8F0"/>
<path d="M99.8757 146H89.1243C85.7673 146 83 148.711 83 152C83 155.289 85.7673 158 89.1243 158H99.8757C103.233 158 106 155.289 106 152C106 148.711 103.278 146 99.8757 146ZM99.8757 154.889H89.1243C87.4911 154.889 86.1755 153.6 86.1755 152C86.1755 150.4 87.4911 149.111 89.1243 149.111H99.8757C101.509 149.111 102.824 150.4 102.824 152C102.824 153.6 101.509 154.889 99.8757 154.889Z" fill="#F2F8F0"/>
<path d="M54.0344 165H134.966C138.293 165 141 162.292 141 158.963V6.03713C141 2.70783 138.293 0 134.966 0H54.0344C50.7066 0 48 2.70783 48 6.03713V158.963C48.0444 162.292 50.7066 165 54.0344 165ZM52.4814 6.03713C52.4814 5.14932 53.1913 4.43906 54.0787 4.43906H135.01C135.897 4.43906 136.607 5.14932 136.607 6.03713V158.963C136.607 159.851 135.897 160.561 135.01 160.561H54.0344C53.147 160.561 52.437 159.851 52.437 158.963V6.03713H52.4814Z" fill="#231F20"/>
<path d="M76.963 163.977L76.9629 163.977V163.965V27.5667C76.9629 23.4595 74.5008 21.2092 71.9622 19.9585C70.6896 19.3315 69.4113 18.9651 68.4474 18.7559C67.9665 18.6515 67.5667 18.5867 67.2888 18.5483C67.1499 18.5291 67.0416 18.5164 66.969 18.5087C66.9328 18.5048 66.9055 18.5021 66.8877 18.5005L66.8818 18.5H10.5787L10.5727 18.5005C10.555 18.5021 10.5277 18.5048 10.4914 18.5087C10.4189 18.5164 10.3107 18.5291 10.1718 18.5483C9.8939 18.5867 9.49422 18.6515 9.0135 18.7559C8.04986 18.9651 6.77188 19.3315 5.49964 19.9585C2.96187 21.2091 0.500408 23.4595 0.500408 27.5667V163.965H0.500574L0.500261 163.977L0.50026 163.977L0.500255 163.977L0.500243 163.978L0.500216 163.979L0.50006 163.993C0.499965 164.007 0.499942 164.028 0.500305 164.056C0.501032 164.113 0.503301 164.2 0.509616 164.311C0.522255 164.534 0.551038 164.856 0.615721 165.245C0.74544 166.024 1.01747 167.056 1.58332 168.083C2.14727 169.106 3.00273 170.125 4.30693 170.89C5.61141 171.655 7.39266 172.183 9.83294 172.183H67.6284C70.0683 172.183 71.8495 171.655 73.1541 170.89C74.4585 170.125 75.3142 169.106 75.8785 168.083C76.4447 167.056 76.7171 166.024 76.8471 165.245C76.9119 164.856 76.9408 164.534 76.9535 164.311C76.9599 164.199 76.9622 164.113 76.9629 164.056C76.9633 164.028 76.9633 164.006 76.9632 163.993L76.9631 163.979L76.963 163.977Z" fill="white" stroke="#231F20"/>
<path d="M4.37781 37.7991V153.894H73.0932V37.7991H4.37781Z" fill="#231F20"/>
<path d="M43.5825 163.879C43.5825 166.555 41.4128 168.726 38.7349 168.726C36.0598 168.726 33.8896 166.555 33.8896 163.879C33.8896 161.199 36.0598 159.028 38.7349 159.028C41.4128 159.028 43.5825 161.199 43.5825 163.879Z" fill="#231F20"/>
<path d="M50.6313 29.6588H26.8315V28.4962H50.6313V29.6588Z" fill="#58595A"/>
</svg>
