<svg width="48" height="48" viewBox="0 0 48 48" fill="none" xmlns="http://www.w3.org/2000/svg">
<path d="M35.0077 42.0718H5.93109V5.93115H42.0689V42.0718H35.0077Z" fill="#F2F8F0"/>
<path d="M35.3708 43.0028H5V5H43V43.0028H35.3708ZM6.86215 41.1406H34.6445H41.312L41.1378 6.86215H6.86215V41.1406Z" fill="#231F20"/>
<path d="M38.2318 21.3364H9.76837V24.7138H38.2318V21.3364Z" fill="#A5A5A5"/>
<path d="M39.2 25.6728H8.79999V20.3776H39.2V25.6728ZM10.7366 23.755H37.2634V22.2954H10.7366V23.755Z" fill="#231F20"/>
<path d="M38.2317 27.9785H9.76831V31.3235H38.2317V27.9785Z" fill="#A5A5A5"/>
<path d="M39.2 32.2725H8.79999V27.0276H39.2V32.2725ZM10.7366 30.3725H37.2634V28.9276H10.7366V30.3725Z" fill="#231F20"/>
<path d="M38.2317 34.6276H9.76831V37.9763H38.2317V34.6276Z" fill="#A5A5A5"/>
<path d="M39.2 38.9262H8.79999V33.6775H39.2V38.9262ZM10.7366 37.0262H37.2634V35.5775H10.7366V37.0262Z" fill="#231F20"/>
<path d="M17.489 9.7887H9.61108V17.6663H17.489V9.7887Z" fill="#A5A5A5"/>
<path d="M18.3 18.4775H8.79999V8.97754H18.3V18.4775V18.4775ZM10.4221 16.8551H16.6779V10.5999H10.4221V16.8551Z" fill="#231F20"/>
<path d="M37.3 11.8275H30.65V13.7275H37.3V11.8275Z" fill="#231F20"/>
<path d="M37.3 16.5775H20.2V18.4775H37.3V16.5775Z" fill="#231F20"/>
<rect x="5" y="5.17749" width="38" height="38" fill="#C4C4C4" fill-opacity="0.5"/>
<line x1="7.01067" y1="6.96693" x2="41.2107" y2="41.1669" stroke="black" stroke-width="3"/>
<line x1="6.78932" y1="41.1669" x2="40.9893" y2="6.96688" stroke="black" stroke-width="3"/>
</svg>
