<?xml version="1.0" encoding="UTF-8" standalone="no"?>
<svg
   xmlns:dc="http://purl.org/dc/elements/1.1/"
   xmlns:cc="http://creativecommons.org/ns#"
   xmlns:rdf="http://www.w3.org/1999/02/22-rdf-syntax-ns#"
   xmlns:svg="http://www.w3.org/2000/svg"
   xmlns="http://www.w3.org/2000/svg"
   xmlns:sodipodi="http://sodipodi.sourceforge.net/DTD/sodipodi-0.dtd"
   xmlns:inkscape="http://www.inkscape.org/namespaces/inkscape"
   width="16"
   height="16"
   fill="currentColor"
   class="bi bi-pencil-square"
   viewBox="0 0 16 16"
   version="1.1"
   id="svg14"
   sodipodi:docname="pencil.svg"
   inkscape:version="1.0.1 (c497b03c, 2020-09-10)">
  <metadata
     id="metadata20">
    <rdf:RDF>
      <cc:Work
         rdf:about="">
        <dc:format>image/svg+xml</dc:format>
        <dc:type
           rdf:resource="http://purl.org/dc/dcmitype/StillImage" />
      </cc:Work>
    </rdf:RDF>
  </metadata>
  <defs
     id="defs18" />
  <sodipodi:namedview
     pagecolor="#ffffff"
     bordercolor="#666666"
     borderopacity="1"
     objecttolerance="10"
     gridtolerance="10"
     guidetolerance="10"
     inkscape:pageopacity="0"
     inkscape:pageshadow="2"
     inkscape:window-width="1393"
     inkscape:window-height="836"
     id="namedview16"
     showgrid="false"
     inkscape:zoom="27.879929"
     inkscape:cx="7.6781419"
     inkscape:cy="5.2883846"
     inkscape:window-x="0"
     inkscape:window-y="23"
     inkscape:window-maximized="0"
     inkscape:current-layer="svg14" />
  <path
     d="m 12.247446,4.638731 a 0.29132996,0.29132996 0 0 1 0,0.4113579 l -0.607714,0.608297 -1.16532,-1.1653199 0.607714,-0.6082969 a 0.29132996,0.29132996 0 0 1 0.411941,0 l 0.753379,0.7533793 z M 11.227791,6.0697438 10.062472,4.9044239 6.0928089,8.8746687 A 0.29132996,0.29132996 0 0 0 6.0223071,8.98887 l -0.4690413,1.406541 a 0.14566499,0.14566499 0 0 0 0.1841206,0.184121 l 1.4065411,-0.469041 a 0.29132996,0.29132996 0 0 0 0.1142013,-0.06992 L 11.227791,6.0703264 Z"
     id="path10"
     style="stroke-width:0.58266" />
  <path
     fill-rule="evenodd"
     d="m 3.7977115,11.37428 a 0.87398989,0.87398989 0 0 0 0.8739899,0.87399 h 6.4092596 a 0.87398989,0.87398989 0 0 0 0.87399,-0.87399 V 7.8783202 a 0.2913305,0.2913305 0 0 0 -0.582661,0 V 11.37428 a 0.29132996,0.29132996 0 0 1 -0.291329,0.29133 H 4.6717014 a 0.29132996,0.29132996 0 0 1 -0.29133,-0.29133 V 4.9650205 a 0.29132996,0.29132996 0 0 1 0.29133,-0.2913299 h 3.7872895 a 0.29132998,0.29132998 0 0 0 0,-0.5826599 H 4.6717014 A 0.87398989,0.87398989 0 0 0 3.7977115,4.9650205 Z"
     id="path12"
     style="stroke-width:0.58266" />
</svg>
