<?xml version="1.0" encoding="UTF-8" standalone="no"?>
<svg
   xmlns:dc="http://purl.org/dc/elements/1.1/"
   xmlns:cc="http://creativecommons.org/ns#"
   xmlns:rdf="http://www.w3.org/1999/02/22-rdf-syntax-ns#"
   xmlns:svg="http://www.w3.org/2000/svg"
   xmlns="http://www.w3.org/2000/svg"
   xmlns:sodipodi="http://sodipodi.sourceforge.net/DTD/sodipodi-0.dtd"
   xmlns:inkscape="http://www.inkscape.org/namespaces/inkscape"
   width="16"
   height="16"
   fill="currentColor"
   class="bi bi-text-left"
   viewBox="0 0 16 16"
   version="1.1"
   id="svg24"
   sodipodi:docname="text.svg"
   inkscape:version="1.0.1 (c497b03c, 2020-09-10)">
  <metadata
     id="metadata30">
    <rdf:RDF>
      <cc:Work
         rdf:about="">
        <dc:format>image/svg+xml</dc:format>
        <dc:type
           rdf:resource="http://purl.org/dc/dcmitype/StillImage" />
      </cc:Work>
    </rdf:RDF>
  </metadata>
  <defs
     id="defs28" />
  <sodipodi:namedview
     pagecolor="#ffffff"
     bordercolor="#666666"
     borderopacity="1"
     objecttolerance="10"
     gridtolerance="10"
     guidetolerance="10"
     inkscape:pageopacity="0"
     inkscape:pageshadow="2"
     inkscape:window-width="1070"
     inkscape:window-height="793"
     id="namedview26"
     showgrid="false"
     inkscape:zoom="20.643746"
     inkscape:cx="3.9696867"
     inkscape:cy="6.7087973"
     inkscape:window-x="0"
     inkscape:window-y="23"
     inkscape:window-maximized="0"
     inkscape:current-layer="svg24" />
  <path
     fill-rule="evenodd"
     d="M 3.8407512,10.848168 A 0.3110808,0.3110808 0 0 1 4.151832,10.537087 h 4.3551312 a 0.31108088,0.31108088 0 0 1 0,0.622161 H 4.151832 a 0.3110808,0.3110808 0 0 1 -0.3110808,-0.31108 z m 0,-1.8664847 A 0.3110808,0.3110808 0 0 1 4.151832,8.6706024 h 6.843778 a 0.31108085,0.31108085 0 0 1 0,0.6221617 H 4.151832 A 0.3110808,0.3110808 0 0 1 3.8407512,8.9816833 Z m 0,-1.8664848 A 0.3110808,0.3110808 0 0 1 4.151832,6.8041177 h 4.3551312 a 0.3110808,0.3110808 0 0 1 0,0.6221616 H 4.151832 A 0.3110808,0.3110808 0 0 1 3.8407512,7.1151985 Z m 0,-1.8664848 A 0.3110808,0.3110808 0 0 1 4.151832,4.9376329 h 6.843778 a 0.31108082,0.31108082 0 0 1 0,0.6221616 H 4.151832 A 0.3110808,0.3110808 0 0 1 3.8407512,5.2487137 Z"
     id="path22"
     style="stroke-width:0.622162" />
</svg>
